<?xml version="1.0" standalone="no"?>
<!DOCTYPE svg PUBLIC "-//W3C//DTD SVG 20010904//EN"
 "http://www.w3.org/TR/2001/REC-SVG-20010904/DTD/svg10.dtd">
<svg version="1.0" xmlns="http://www.w3.org/2000/svg"
 width="700.000000pt" height="700.000000pt" viewBox="0 0 700.000000 700.000000"
 preserveAspectRatio="xMidYMid meet">
<metadata>
Created by potrace 1.14, written by Peter Selinger 2001-2017
</metadata>
<g transform="translate(0.000000,700.000000) scale(0.100000,-0.100000)"
fill="#000000" stroke="none">
<path d="M3816 6964 c-12 -31 -7 -41 18 -37 13 3 32 1 42 -5 11 -5 27 -7 36
-3 16 6 16 8 -5 32 -26 30 -81 38 -91 13z"/>
<path d="M3814 6876 c-13 -34 0 -38 129 -41 69 -2 129 -1 131 4 3 4 1 13 -5
21 -5 8 -9 11 -9 5 0 -5 -5 -3 -10 5 -7 11 -36 16 -119 18 -94 4 -112 2 -117
-12z"/>
<path d="M3815 6792 c-14 -36 -8 -38 173 -39 97 0 194 -3 215 -6 21 -3 48 -2
59 2 20 7 20 8 -7 30 -16 12 -35 19 -42 17 -7 -3 -13 -2 -13 3 0 4 -85 7 -190
7 -148 -1 -191 -4 -195 -14z"/>
<path d="M4515 6780 c-10 -31 1 -40 36 -30 39 12 41 13 33 34 -9 24 -61 21
-69 -4z"/>
<path d="M3817 6713 c-4 -3 -7 -15 -7 -25 0 -21 -34 -19 362 -20 268 0 310 2
323 16 9 9 13 20 10 26 -7 11 -677 15 -688 3z"/>
<path d="M3816 6632 c-3 -3 -6 -16 -6 -30 0 -23 3 -24 40 -19 43 5 70 22 70
41 0 11 -94 19 -104 8z"/>
<path d="M3817 6543 c-4 -3 -7 -15 -7 -25 0 -28 34 -19 38 10 3 21 -16 31 -31
15z"/>
<path d="M3814 6444 c-8 -30 -3 -37 20 -28 20 8 21 40 1 48 -10 3 -17 -3 -21
-20z"/>
<path d="M3817 6373 c-4 -3 -7 -15 -7 -25 0 -28 34 -19 38 10 3 21 -16 31 -31
15z"/>
<path d="M3817 6283 c-4 -3 -7 -15 -7 -26 0 -13 5 -17 16 -13 9 3 18 6 20 6 2
0 4 9 4 20 0 19 -20 27 -33 13z"/>
<path d="M3817 6203 c-4 -3 -7 -17 -7 -30 0 -21 3 -22 20 -13 22 12 27 50 7
50 -8 0 -17 -3 -20 -7z"/>
<path d="M3975 6195 c-3 -8 -7 -21 -9 -29 -3 -9 2 -12 15 -9 24 7 31 17 23 37
-8 20 -23 21 -29 1z"/>
<path d="M3948 6122 c-12 -2 -18 -13 -18 -28 0 -24 3 -25 51 -22 36 2 55 8 63
20 5 9 8 19 5 22 -7 7 -79 13 -101 8z"/>
<path d="M3902 6032 c-7 -2 -12 -14 -12 -26 0 -22 3 -23 90 -22 69 1 93 5 100
16 13 20 12 30 -2 32 -28 4 -165 4 -176 0z"/>
<path d="M3857 5943 c-4 -3 -7 -15 -7 -25 0 -20 0 -20 159 -21 79 0 96 3 107
18 7 10 11 22 8 26 -6 10 -257 12 -267 2z"/>
<path d="M3820 5856 c-6 -6 -10 -17 -10 -26 0 -15 20 -17 192 -16 170 1 193 3
196 17 2 11 -7 19 -25 25 -41 11 -342 11 -353 0z"/>
<path d="M3777 5773 c-16 -15 -6 -43 16 -44 139 -5 376 -3 390 3 9 5 17 18 17
28 0 19 -8 20 -208 20 -115 0 -212 -3 -215 -7z"/>
<path d="M3742 5685 c-4 -5 -8 -18 -9 -27 -3 -16 17 -17 235 -17 130 0 245 2
255 5 9 3 17 15 17 27 l0 22 -246 0 c-153 0 -248 -4 -252 -10z"/>
<path d="M3039 5608 c-9 -30 -7 -48 6 -48 16 0 38 34 28 44 -6 6 -32 9 -34 4z"/>
<path d="M3696 5595 c-15 -39 -6 -40 302 -40 163 1 303 4 310 8 6 5 12 17 12
28 0 18 -10 19 -309 19 -265 0 -310 -2 -315 -15z"/>
<path d="M3033 5520 c-2 -3 -9 -5 -15 -5 -17 0 -34 -33 -23 -44 6 -5 42 -6 80
-2 66 6 70 7 70 31 0 23 -3 25 -53 25 -30 0 -56 -2 -59 -5z"/>
<path d="M3663 5515 c-8 -6 -11 -18 -8 -27 6 -16 37 -17 340 -17 184 -1 341 2
349 5 19 7 21 44 4 45 -113 7 -674 2 -685 -6z"/>
<path d="M2982 5429 c-47 -18 -33 -63 16 -50 15 4 52 6 82 5 84 -4 110 3 110
31 0 23 -2 23 -94 22 -52 0 -103 -4 -114 -8z"/>
<path d="M3620 5420 c-5 -9 -6 -21 -2 -26 5 -7 136 -10 384 -10 385 1 409 3
395 39 -4 12 -67 14 -387 14 -343 0 -382 -2 -390 -17z"/>
<path d="M2921 5331 c-5 -9 -7 -21 -5 -26 4 -11 274 -11 301 -1 7 3 13 15 13
26 0 21 -4 21 -150 19 -127 -1 -152 -4 -159 -18z"/>
<path d="M3580 5323 l0 -28 416 2 c421 1 435 2 440 38 2 13 -50 15 -427 15
l-429 0 0 -27z"/>
<path d="M2915 5260 c-19 -3 -31 -12 -33 -24 -5 -23 15 -36 42 -27 12 4 86 6
166 5 149 -2 180 4 180 34 0 16 -15 18 -162 18 -90 0 -176 -3 -193 -6z"/>
<path d="M3544 5261 c-2 -2 -4 -14 -4 -26 l0 -22 456 0 c376 0 458 2 469 14
38 38 21 39 -456 39 -253 0 -462 -2 -465 -5z"/>
<path d="M2858 5173 c-10 -3 -18 -14 -18 -27 l0 -22 225 2 c123 2 229 5 235 9
5 3 10 15 10 26 0 18 -8 19 -217 18 -120 -1 -226 -3 -235 -6z"/>
<path d="M3488 5173 c-21 -3 -28 -10 -28 -26 l0 -22 510 1 c281 1 517 4 525 8
8 3 15 15 15 26 0 20 -4 20 -497 19 -274 -1 -510 -4 -525 -6z"/>
<path d="M2805 5082 c-15 -39 -14 -39 259 -40 214 0 267 2 276 14 31 36 12 39
-263 39 -214 0 -268 -2 -272 -13z"/>
<path d="M3460 5074 c0 -12 8 -24 18 -26 9 -3 229 -5 489 -6 454 -1 472 0 489
19 9 10 14 22 10 27 -4 4 -232 7 -507 7 l-499 0 0 -21z"/>
<path d="M2764 4995 c-15 -39 -7 -40 306 -39 250 0 303 3 311 15 5 8 7 19 6
24 -2 6 -117 11 -311 13 -266 2 -307 0 -312 -13z"/>
<path d="M3735 4990 c-3 -11 -4 -23 -2 -27 4 -6 621 -9 672 -4 22 3 35 18 29
34 -6 15 -38 17 -349 17 -334 0 -344 -1 -350 -20z"/>
<path d="M2725 4912 c-15 -41 -19 -40 334 -40 268 0 344 3 358 13 14 11 16 16
5 26 -18 19 -690 20 -697 1z"/>
<path d="M3744 4917 c-8 -4 -14 -16 -14 -27 0 -17 16 -18 344 -18 352 -1 363
1 362 38 -1 12 -51 14 -339 15 -186 0 -345 -4 -353 -8z"/>
<path d="M4055 4838 c-27 -4 -58 -5 -67 -2 -14 4 -18 0 -18 -20 0 -15 7 -26
18 -29 9 -3 82 -4 162 -2 80 2 178 3 217 4 70 1 73 2 69 24 -3 24 15 22 -231
29 -55 2 -122 0 -150 -4z"/>
<path d="M2687 4818 c-4 -12 -4 -24 -2 -27 2 -5 712 -7 763 -2 6 1 12 12 12
26 l0 25 -384 0 c-384 -1 -384 -1 -389 -22z"/>
<path d="M3737 4833 c-4 -3 -7 -16 -7 -29 0 -21 3 -22 93 -20 94 2 137 15 137
41 0 12 -20 15 -108 15 -60 0 -112 -3 -115 -7z"/>
<path d="M2693 4753 c-7 -3 -13 -13 -13 -23 0 -28 44 -31 450 -28 l365 3 0 24
0 24 -275 -1 c-151 0 -320 -1 -375 -2 -55 -1 -102 -1 -105 0 -19 6 -37 6 -47
3z"/>
<path d="M3820 4750 c-79 -5 -85 -7 -88 -27 -3 -22 -1 -23 81 -23 98 0 117 5
117 30 0 24 -11 26 -110 20z"/>
<path d="M4053 4752 c-24 -2 -43 -6 -44 -10 0 -4 -2 -15 -4 -25 -3 -16 8 -17
142 -16 80 0 152 3 159 6 17 6 19 43 2 44 -41 3 -220 4 -255 1z"/>
<path d="M2764 4661 c-19 -19 22 -51 64 -50 49 1 67 10 69 36 3 21 -1 22 -63
20 -36 -1 -67 -4 -70 -6z"/>
<path d="M2959 4656 c0 -6 -2 -18 -4 -28 -3 -15 15 -16 186 -14 192 2 218 7
206 40 -5 13 -34 15 -197 14 -128 -1 -190 -5 -191 -12z"/>
<path d="M3741 4657 c-6 -6 -11 -18 -11 -26 0 -13 14 -16 68 -18 105 -3 132 3
132 32 0 23 -2 24 -89 23 -50 0 -94 -5 -100 -11z"/>
<path d="M3970 4641 l0 -27 163 1 c89 0 168 4 175 8 6 5 12 17 12 27 0 18 -9
19 -175 19 l-175 -1 0 -27z"/>
<path d="M4826 4654 c-13 -34 -7 -45 22 -40 15 2 33 5 40 5 6 1 12 12 12 26 0
22 -4 25 -34 25 -22 0 -36 -6 -40 -16z"/>
<path d="M5685 4662 c-3 -3 -5 -15 -5 -26 0 -18 7 -21 43 -23 49 -3 84 16 74
40 -5 13 -19 16 -56 16 -28 -1 -53 -4 -56 -7z"/>
<path d="M3133 4582 c-95 -1 -173 -6 -174 -10 0 -4 -2 -15 -4 -24 -2 -11 3
-18 13 -19 79 -3 349 2 364 7 26 8 23 41 -4 45 -13 2 -101 3 -195 1z"/>
<path d="M4025 4580 l-290 -5 -3 -22 c-3 -23 -1 -23 100 -24 302 -2 473 2 481
10 5 5 7 17 5 27 -3 18 -16 19 -293 14z"/>
<path d="M2765 4562 c3 -7 5 -18 5 -23 0 -10 70 -12 94 -3 9 3 16 14 16 25 0
16 -8 18 -60 16 -47 -1 -59 -4 -55 -15z"/>
<path d="M4785 4559 c-4 -11 -4 -23 -1 -26 8 -8 133 -6 146 2 5 3 10 15 10 26
0 17 -7 19 -74 19 -67 0 -75 -2 -81 -21z"/>
<path d="M5680 4556 c0 -29 -2 -29 170 -26 143 3 143 3 178 -5 25 -6 32 -4 32
8 0 36 -29 42 -207 45 l-173 4 0 -26z"/>
<path d="M6273 4573 c-7 -2 -13 -16 -13 -30 0 -24 2 -25 40 -20 77 10 100 58
28 56 -24 0 -49 -3 -55 -6z"/>
<path d="M2764 4488 c-3 -4 0 -17 6 -28 11 -20 46 -26 135 -21 17 1 117 2 222
2 197 1 233 8 221 41 -5 12 -40 14 -225 13 -120 -1 -222 -3 -228 -5 -5 -1 -14
-1 -20 0 -27 6 -107 4 -111 -2z"/>
<path d="M3734 4478 c-3 -10 -3 -22 0 -26 6 -9 497 -14 554 -6 27 4 33 9 30
27 l-3 22 -288 0 c-265 0 -288 -1 -293 -17z"/>
<path d="M4749 4488 c-7 -43 -7 -43 81 -45 124 -2 150 3 150 31 0 23 -1 23
-115 22 -63 0 -116 -4 -116 -8z"/>
<path d="M5684 4491 c-2 -2 -4 -14 -4 -26 l0 -22 283 2 c155 1 286 3 290 3 5
1 7 12 5 25 l-3 22 -283 0 c-156 0 -285 -2 -288 -4z"/>
<path d="M3938 4425 c-3 -3 -119 -15 -173 -18 -24 -2 -29 -6 -27 -22 2 -11 6
-22 8 -24 7 -7 551 -4 562 3 7 4 12 16 12 27 0 16 -7 19 -42 20 -24 0 -74 2
-113 5 -116 7 -225 11 -227 9z"/>
<path d="M2804 4395 c-15 -39 -5 -40 259 -39 141 1 263 4 271 7 9 4 16 16 16
27 0 20 -5 20 -270 20 -231 0 -271 -2 -276 -15z"/>
<path d="M4707 4396 c-15 -38 -1 -41 153 -40 84 1 153 -2 156 -8 3 -5 14 1 25
13 33 38 11 44 -165 47 -141 3 -164 1 -169 -12z"/>
<path d="M5678 4393 c-8 -29 1 -41 25 -35 53 14 62 52 13 52 -24 0 -35 -5 -38
-17z"/>
<path d="M3869 4336 c-4 -4 -75 -17 -99 -17 -33 -1 -41 -8 -31 -28 10 -18 25
-19 268 -19 298 -1 313 1 313 32 0 19 -6 22 -42 23 -24 1 -124 4 -224 7 -99 4
-182 4 -185 2z"/>
<path d="M2805 4312 c-15 -40 -14 -40 243 -40 286 -1 304 1 300 31 -3 22 -4
22 -270 22 -214 0 -269 -3 -273 -13z"/>
<path d="M4680 4320 c-4 -3 -10 -14 -12 -25 -3 -19 3 -20 195 -21 110 -1 207
1 217 3 21 6 16 33 -6 33 -8 0 -14 3 -14 8 0 8 -367 10 -380 2z"/>
<path d="M5693 4323 c-7 -3 -13 -15 -13 -28 0 -17 4 -22 18 -18 10 2 18 13 19
23 2 22 -6 29 -24 23z"/>
<path d="M2767 4233 c-4 -3 -7 -15 -7 -25 0 -21 -24 -20 313 -21 262 0 287 3
274 37 -6 14 -42 16 -290 16 -156 0 -287 -3 -290 -7z"/>
<path d="M3622 4227 c-9 -10 -9 -18 1 -31 10 -14 17 -15 45 -5 22 7 32 17 30
28 -4 21 -61 27 -76 8z"/>
<path d="M3775 4219 c-4 -11 -4 -23 -1 -26 8 -9 504 -9 527 -1 10 4 19 17 19
28 0 20 -5 20 -269 20 -264 0 -270 0 -276 -21z"/>
<path d="M4618 4233 c-21 -3 -28 -10 -28 -27 l0 -22 243 1 c134 1 249 5 255 9
7 4 12 16 12 27 0 18 -8 19 -227 18 -126 -1 -240 -4 -255 -6z"/>
<path d="M5687 4234 c-15 -15 -7 -45 11 -42 9 2 17 12 17 22 0 20 -16 31 -28
20z"/>
<path d="M3885 4157 c-27 -4 -65 -8 -82 -8 -36 0 -38 -2 -23 -29 9 -18 26 -19
264 -18 139 0 259 4 266 8 6 4 10 16 8 26 -2 15 -15 18 -73 21 -188 8 -315 8
-360 0z"/>
<path d="M2775 4147 c-8 -4 -15 -17 -15 -27 0 -17 7 -20 48 -20 56 0 75 10 70
36 -2 15 -12 19 -46 19 -23 1 -49 -3 -57 -8z"/>
<path d="M2969 4149 c-5 -3 -11 -15 -13 -26 -4 -21 -2 -21 184 -21 149 0 191
3 200 14 28 33 8 38 -179 38 -101 1 -187 -2 -192 -5z"/>
<path d="M3597 4152 c-10 -2 -17 -13 -17 -27 0 -23 3 -24 70 -24 60 0 71 3 81
20 6 12 8 24 4 27 -7 7 -108 10 -138 4z"/>
<path d="M4560 4146 c-6 -6 -10 -18 -10 -27 0 -15 25 -17 308 -15 l307 1 3 25
3 25 -301 0 c-177 0 -305 -4 -310 -9z"/>
<path d="M5680 4125 c0 -28 12 -32 30 -10 14 16 6 35 -16 35 -8 0 -14 -10 -14
-25z"/>
<path d="M2799 4063 c-31 -3 -36 -7 -32 -24 3 -10 13 -19 22 -20 9 0 27 -2 39
-5 13 -2 39 3 58 12 27 13 32 19 23 30 -11 14 -34 15 -110 7z"/>
<path d="M2929 4065 c-5 -24 -1 -49 9 -53 7 -2 12 2 12 8 0 9 4 9 13 3 14 -11
356 -11 375 1 6 4 12 16 12 27 0 18 -9 19 -194 19 -177 0 -195 -2 -199 -17 -4
-17 -5 -17 -6 0 -1 15 -19 25 -22 12z"/>
<path d="M3547 4063 c-4 -3 -7 -16 -7 -27 0 -20 5 -21 98 -20 136 1 132 0 132
29 l0 25 -108 0 c-60 0 -112 -3 -115 -7z"/>
<path d="M3814 4055 c-15 -38 -4 -39 237 -40 129 -1 242 3 252 7 9 5 17 18 17
28 0 19 -8 20 -250 20 -211 0 -252 -2 -256 -15z"/>
<path d="M4517 4063 c-4 -3 -7 -16 -7 -27 0 -21 1 -21 338 -20 185 1 343 2
350 3 6 0 12 12 12 26 l0 25 -343 0 c-189 0 -347 -3 -350 -7z"/>
<path d="M5687 4063 c-4 -3 -7 -17 -7 -30 0 -20 3 -22 19 -13 11 5 19 19 18
30 -1 20 -17 27 -30 13z"/>
<path d="M2861 3985 c-36 -7 -73 -10 -84 -7 -16 4 -19 2 -14 -12 4 -10 7 -22
7 -27 0 -6 112 -8 281 -7 253 3 283 5 293 20 5 9 7 20 3 24 -16 17 -407 23
-486 9z"/>
<path d="M3940 3987 c-88 -10 -65 -9 -260 -6 -86 2 -161 -1 -168 -5 -7 -4 -12
-16 -12 -27 0 -19 6 -20 133 -19 72 1 140 -1 150 -5 9 -4 24 -4 33 -1 9 4 121
6 248 6 127 1 237 4 244 9 8 5 12 17 10 26 -3 16 -16 19 -108 22 -58 2 -125 5
-150 6 -25 1 -79 -2 -120 -6z"/>
<path d="M4475 3972 c-16 -43 -25 -42 383 -39 l387 2 0 24 0 24 -382 1 c-310
1 -384 -2 -388 -12z"/>
<path d="M5687 3973 c-10 -9 -9 -43 1 -43 12 0 32 23 32 37 0 14 -22 18 -33 6z"/>
<path d="M2878 3905 c-3 -3 -30 -8 -59 -10 -57 -4 -69 -14 -45 -37 12 -12 60
-14 283 -14 147 1 273 5 280 9 6 4 11 16 10 27 -1 17 -9 20 -47 21 -25 0 -128
3 -230 5 -102 3 -189 2 -192 -1z"/>
<path d="M3466 3883 c-15 -39 -20 -39 412 -38 229 0 423 4 430 8 6 5 12 17 12
27 0 17 -18 18 -424 18 -360 -1 -426 -3 -430 -15z"/>
<path d="M4435 3879 c-4 -11 -4 -23 -1 -27 4 -6 787 -9 844 -3 6 0 12 12 12
25 l0 24 -425 -1 c-403 0 -425 -1 -430 -18z"/>
<path d="M5682 3887 c-14 -17 1 -42 21 -34 18 7 19 47 1 47 -6 0 -16 -6 -22
-13z"/>
<path d="M2890 3817 c-36 -5 -80 -9 -98 -9 -29 1 -32 -2 -26 -21 3 -12 8 -24
10 -25 1 -2 51 -4 109 -4 112 1 127 -2 60 -12 -22 -3 -62 -11 -88 -17 -26 -6
-57 -9 -67 -6 -25 6 -34 -7 -21 -31 10 -18 32 -19 553 -17 299 1 549 3 556 3
6 1 12 13 12 27 l0 25 -107 1 c-60 1 -119 2 -133 4 -14 1 -65 5 -114 9 -49 3
-91 8 -94 11 -2 2 97 4 222 4 230 -1 256 3 256 37 0 12 -41 14 -247 12 l-248
-3 0 -28 c1 -27 0 -28 -52 -25 -42 2 -50 5 -38 14 27 20 18 44 -17 45 -18 0
-55 2 -83 5 -122 9 -285 9 -345 1z m137 -63 c-3 -3 -12 -4 -19 -1 -8 3 -5 6 6
6 11 1 17 -2 13 -5z"/>
<path d="M4166 3812 c-2 -1 -31 -3 -65 -3 -52 -1 -61 -4 -61 -19 0 -28 11 -31
128 -32 126 -1 154 5 150 34 -3 17 -11 20 -76 22 -40 1 -75 0 -76 -2z"/>
<path d="M4399 3808 c-8 -28 -7 -48 4 -48 95 -4 910 1 917 5 6 4 10 15 10 26
0 19 -11 19 -465 19 -256 0 -465 -1 -466 -2z"/>
<path d="M5680 3785 c0 -27 9 -32 28 -13 18 18 14 38 -8 38 -15 0 -20 -7 -20
-25z"/>
<path d="M4086 3705 c-3 -11 -6 -23 -6 -27 0 -8 170 -9 213 -1 22 4 27 10 25
26 -3 21 -8 22 -115 22 -104 1 -112 -1 -117 -20z"/>
<path d="M4355 3722 c-10 -10 -5 -43 5 -37 6 4 17 2 25 -5 7 -6 15 -7 18 -3 3
4 29 6 59 5 29 -2 242 -5 473 -6 266 0 423 -5 428 -11 4 -6 16 0 28 15 l21 25
-21 3 c-11 2 -21 7 -21 10 0 8 -1007 12 -1015 4z"/>
<path d="M5684 3716 c-3 -8 -4 -22 -2 -31 3 -14 6 -14 21 -3 11 9 16 20 11 31
-8 21 -23 22 -30 3z"/>
<path d="M2594 3633 c-22 -4 -39 -39 -24 -48 5 -3 28 -3 52 0 41 5 73 29 62
46 -5 9 -51 10 -90 2z"/>
<path d="M3077 3633 c-4 -3 -7 -15 -7 -25 0 -20 -3 -20 155 -20 157 0 152 -1
157 27 l5 25 -152 0 c-83 0 -155 -3 -158 -7z"/>
<path d="M3504 3625 c-14 -36 -2 -38 183 -38 99 0 186 4 192 7 6 4 11 16 11
27 0 18 -9 19 -190 19 -158 0 -192 -2 -196 -15z"/>
<path d="M4085 3630 c-3 -6 -4 -18 -1 -28 5 -15 19 -17 107 -15 118 2 129 5
129 33 0 19 -6 20 -114 20 -67 0 -117 -4 -121 -10z"/>
<path d="M4516 3633 c-3 -3 -6 -15 -6 -25 0 -19 2 -20 119 -19 38 0 67 5 71
12 6 8 9 8 12 -2 6 -19 236 -18 249 2 23 37 16 39 -215 39 -122 0 -226 -3
-230 -7z"/>
<path d="M5017 3627 c-12 -32 9 -39 130 -39 66 0 126 2 132 6 6 4 11 16 11 27
0 18 -8 19 -134 19 -103 0 -135 -3 -139 -13z"/>
<path d="M5680 3615 c0 -27 6 -30 29 -16 17 11 7 41 -14 41 -9 0 -15 -9 -15
-25z"/>
<path d="M2558 3550 c-16 -4 -24 -14 -26 -34 -3 -24 -1 -27 17 -21 11 3 50 6
86 6 67 0 99 16 89 43 -5 14 -114 18 -166 6z"/>
<path d="M3080 3546 c-6 -6 -10 -17 -10 -27 0 -14 16 -16 138 -17 140 0 180 9
170 40 -4 10 -38 13 -147 13 -78 0 -146 -4 -151 -9z"/>
<path d="M3505 3542 c-15 -39 -12 -40 198 -40 111 1 208 3 215 5 6 3 12 13 12
22 0 22 10 21 -222 24 -159 2 -199 0 -203 -11z"/>
<path d="M4092 3544 c-8 -6 -13 -18 -9 -26 4 -13 25 -16 109 -16 104 0 128 7
128 37 0 15 -13 17 -106 17 -62 -1 -113 -6 -122 -12z"/>
<path d="M4515 3542 c-13 -35 -6 -40 63 -40 77 0 96 7 90 34 -3 17 -13 19 -75
19 -52 0 -74 -3 -78 -13z"/>
<path d="M4712 3535 c3 -31 10 -33 126 -34 101 -1 132 8 132 39 0 19 -6 20
-105 17 -58 -2 -108 -7 -111 -10 -4 -4 -15 -2 -25 4 -16 8 -19 6 -17 -16z"/>
<path d="M5024 3551 c-2 -2 -4 -14 -4 -27 0 -21 3 -22 118 -22 138 -1 152 2
152 32 0 22 -2 22 -131 22 -72 -1 -133 -3 -135 -5z"/>
<path d="M5688 3549 c-10 -5 -14 -17 -11 -29 4 -16 9 -18 24 -9 19 10 25 34
11 43 -4 2 -15 0 -24 -5z"/>
<path d="M2497 3463 c-4 -3 -7 -16 -7 -27 0 -20 5 -21 123 -21 67 1 128 4 135
8 6 5 12 17 12 28 0 18 -8 19 -128 19 -71 0 -132 -3 -135 -7z"/>
<path d="M3076 3454 c-14 -38 -9 -39 133 -38 113 0 142 4 155 17 33 33 19 37
-133 37 -127 0 -150 -2 -155 -16z"/>
<path d="M3507 3463 c-4 -3 -7 -15 -7 -25 0 -21 -12 -20 223 -22 93 0 177 2
188 6 10 4 19 17 19 28 0 19 -6 20 -208 20 -115 0 -212 -3 -215 -7z"/>
<path d="M4035 3463 c-24 -6 -35 -21 -29 -38 4 -9 44 -12 149 -10 79 2 148 6
154 10 6 3 11 15 11 26 0 18 -8 19 -132 18 -73 -1 -142 -4 -153 -6z"/>
<path d="M4514 3455 c-13 -32 2 -41 68 -39 73 1 88 7 88 35 0 17 -7 19 -75 19
-58 0 -77 -4 -81 -15z"/>
<path d="M4706 3453 c-4 -9 -2 -21 4 -27 13 -13 536 -16 563 -4 9 5 17 18 17
28 0 19 -7 20 -129 20 -71 0 -141 -4 -155 -10 -17 -6 -26 -6 -26 0 0 6 -54 10
-134 10 -116 0 -135 -2 -140 -17z"/>
<path d="M5681 3451 c-13 -23 -1 -34 24 -25 18 7 17 35 -2 41 -6 2 -16 -5 -22
-16z"/>
<path d="M5875 3450 c-9 -28 1 -39 32 -34 36 7 43 12 43 35 0 28 -66 28 -75
-1z"/>
<path d="M2455 3372 c-14 -38 -9 -40 153 -40 86 -1 165 1 175 4 9 3 17 15 17
27 0 22 -2 22 -170 22 -132 0 -171 -3 -175 -13z"/>
<path d="M3075 3372 c-14 -38 -9 -40 126 -38 112 1 133 4 143 18 5 9 7 20 3
24 -4 4 -65 8 -137 8 -99 1 -131 -2 -135 -12z"/>
<path d="M3519 3378 c-10 -4 -19 -16 -19 -27 0 -18 11 -19 398 -19 219 0 404
3 411 8 7 4 11 16 9 26 -3 17 -24 18 -391 18 -214 1 -397 -2 -408 -6z"/>
<path d="M4515 3372 c-15 -41 -20 -40 368 -40 204 -1 380 1 390 4 9 3 17 15
17 27 l0 22 -385 0 c-311 0 -386 -3 -390 -13z"/>
<path d="M5839 3368 c-17 -32 -10 -38 54 -37 81 0 97 6 97 32 0 21 -5 22 -71
22 -56 0 -73 -3 -80 -17z"/>
<path d="M5680 3356 c0 -18 4 -23 18 -19 25 6 26 43 1 43 -13 0 -19 -7 -19
-24z"/>
<path d="M2417 3293 c-4 -3 -7 -16 -7 -28 0 -21 2 -21 183 -19 100 1 188 2
195 3 6 1 12 12 12 26 l0 25 -188 0 c-104 0 -192 -3 -195 -7z"/>
<path d="M3076 3284 c-14 -37 -9 -39 121 -39 71 0 134 4 141 8 6 5 12 17 12
28 0 18 -8 19 -134 19 -113 0 -135 -2 -140 -16z"/>
<path d="M3504 3285 c-16 -40 -12 -40 415 -40 350 1 414 3 421 15 26 40 26 40
-410 40 -365 0 -421 -2 -426 -15z"/>
<path d="M4517 3293 c-4 -3 -7 -16 -7 -27 0 -21 2 -21 378 -21 207 1 383 4
390 8 6 5 12 17 12 28 0 18 -11 19 -383 19 -211 0 -387 -3 -390 -7z"/>
<path d="M5687 3294 c-15 -15 -7 -45 11 -42 9 2 17 12 17 22 0 20 -16 31 -28
20z"/>
<path d="M5799 3293 c0 -5 -2 -16 -4 -25 -4 -22 11 -25 120 -24 99 2 115 7
115 37 0 18 -8 19 -115 19 -63 0 -115 -3 -116 -7z"/>
<path d="M2526 3213 c-1 -1 -41 -3 -89 -4 -89 -2 -115 -13 -104 -43 5 -12 17
-14 54 -10 26 3 129 6 228 7 l180 2 0 23 c0 23 -1 23 -133 25 -74 1 -135 1
-136 0z"/>
<path d="M3002 3208 c-19 -19 -14 -48 8 -48 12 0 20 7 20 18 1 16 1 16 11 0 9
-16 27 -18 147 -18 75 0 143 4 150 9 23 14 10 46 -18 44 -63 -4 -258 -3 -281
1 -14 3 -31 0 -37 -6z"/>
<path d="M3760 3210 l-255 -5 -3 -23 -3 -22 383 -1 c466 -1 437 -2 454 16 44
44 1 46 -576 35z"/>
<path d="M4520 3206 c-6 -6 -10 -18 -10 -28 0 -17 18 -18 293 -19 498 -1 487
-2 487 35 l0 21 -380 0 c-227 0 -385 -4 -390 -9z"/>
<path d="M5846 3210 c-84 -5 -90 -6 -91 -27 -2 -23 -1 -23 141 -23 78 0 149 3
158 6 16 6 23 44 9 45 -52 3 -145 3 -217 -1z"/>
<path d="M2296 3114 c-15 -38 -2 -40 242 -38 130 1 243 2 250 3 6 0 12 12 12
25 l0 25 -250 -1 c-199 -1 -250 -4 -254 -14z"/>
<path d="M3000 3115 c-6 -7 -8 -19 -5 -27 5 -12 36 -14 179 -14 176 1 206 7
206 42 0 19 -364 18 -380 -1z"/>
<path d="M3506 3122 c-3 -3 -6 -15 -6 -26 l0 -21 408 0 c224 1 415 5 425 9 9
5 17 16 17 26 0 17 -21 18 -419 18 -231 0 -422 -3 -425 -6z"/>
<path d="M4521 3117 c-6 -6 -11 -18 -11 -27 0 -15 34 -17 383 -15 210 1 385 3
390 4 4 0 7 12 7 25 l0 24 -379 0 c-262 0 -382 -3 -390 -11z"/>
<path d="M5721 3111 c-5 -9 -7 -22 -3 -28 8 -13 359 -12 380 0 6 5 12 17 12
27 0 17 -11 18 -190 18 -169 0 -191 -2 -199 -17z"/>
<path d="M2450 3047 c-52 -4 -107 -8 -122 -8 -21 0 -28 -5 -28 -19 0 -10 4
-21 9 -24 5 -3 120 -6 256 -6 257 -1 264 0 265 40 0 12 -12 15 -52 15 -29 0
-93 2 -143 5 -49 3 -133 1 -185 -3z"/>
<path d="M3161 3040 c-161 -5 -164 -5 -167 -27 -4 -26 -22 -24 204 -24 120 0
156 3 167 15 39 39 16 43 -204 36z"/>
<path d="M3528 3040 c-14 -4 -24 -15 -26 -28 -3 -19 1 -22 30 -23 174 -2 756
2 770 7 27 8 23 44 -4 44 -360 4 -752 4 -770 0z"/>
<path d="M4545 3040 c-22 -4 -31 -12 -33 -28 -2 -13 2 -22 10 -23 7 0 85 0
172 1 88 0 157 -2 154 -5 -3 -3 -54 -7 -114 -10 -117 -4 -180 -12 -204 -25 -8
-5 -22 -4 -32 1 -22 12 -32 -4 -19 -29 10 -18 30 -19 393 -20 211 0 391 2 401
5 10 2 17 14 17 28 0 22 -3 23 -87 25 -49 1 -104 3 -123 5 -19 1 -59 3 -87 4
-29 0 -53 5 -53 11 0 5 67 9 165 9 91 0 169 3 175 6 5 3 10 15 10 26 0 15 -7
19 -32 19 -274 4 -691 4 -713 0z m385 -59 c0 -11 -56 -9 -66 2 -4 4 9 7 29 7
21 0 37 -4 37 -9z"/>
<path d="M5853 3042 l-173 -2 0 -25 c0 -21 5 -25 33 -26 41 0 352 0 393 0 26
1 33 6 36 26 3 14 2 25 -1 26 -19 3 -138 4 -288 1z"/>
<path d="M2334 2937 c-8 -24 -1 -29 38 -34 53 -6 78 4 78 31 0 22 -4 23 -55
22 -44 -1 -56 -5 -61 -19z"/>
<path d="M2535 2951 c-3 -2 -5 -14 -5 -26 0 -20 5 -21 127 -22 136 -1 173 6
173 35 0 17 -11 18 -145 18 -80 0 -148 -2 -150 -5z"/>
<path d="M2998 2943 c-6 -7 -8 -19 -5 -26 6 -17 304 -21 355 -6 33 11 37 16
24 35 -11 16 -360 13 -374 -3z"/>
<path d="M3510 2952 c-5 -2 -10 -14 -10 -26 0 -21 3 -22 134 -23 136 -1 161 5
168 37 3 13 -18 15 -139 15 -79 0 -147 -1 -153 -3z"/>
<path d="M3861 2952 c-6 -2 -11 -14 -11 -26 0 -21 4 -22 83 -23 89 -1 120 9
115 35 -3 14 -17 17 -90 17 -47 0 -91 -1 -97 -3z"/>
<path d="M4125 2942 c-13 -34 -5 -37 106 -39 109 -1 110 -1 120 24 5 13 9 26
9 29 0 3 -52 3 -115 2 -84 -2 -116 -7 -120 -16z"/>
<path d="M5644 2951 c-2 -2 -4 -14 -4 -26 l0 -21 267 0 267 1 7 26 7 27 -270
-2 c-148 0 -272 -3 -274 -5z"/>
<path d="M2335 2849 c-9 -27 -5 -30 48 -31 53 -1 67 6 67 33 0 16 -7 19 -54
19 -47 0 -56 -3 -61 -21z"/>
<path d="M2494 2855 c-14 -36 -2 -39 161 -38 160 2 174 6 175 41 0 19 -329 17
-336 -3z"/>
<path d="M2996 2853 c-4 -9 -2 -21 3 -26 11 -11 323 -13 340 -3 6 4 11 16 11
27 0 18 -8 19 -174 19 -153 0 -175 -2 -180 -17z"/>
<path d="M3660 2847 c0 -41 102 -40 108 1 3 20 0 22 -52 19 -46 -2 -56 -5 -56
-20z"/>
<path d="M3857 2863 c-4 -3 -7 -15 -7 -25 0 -19 7 -21 118 -20 71 1 82 5 82
33 0 17 -8 19 -93 19 -52 0 -97 -3 -100 -7z"/>
<path d="M4087 2863 c-4 -3 -7 -15 -7 -25 0 -20 -8 -19 156 -20 109 -1 124 3
124 33 0 18 -8 19 -133 19 -74 0 -137 -3 -140 -7z"/>
<path d="M4460 2861 c-15 -4 -25 -14 -25 -26 0 -18 16 -18 417 -18 229 0 421
4 427 7 6 4 11 16 11 27 0 18 -10 19 -402 18 -222 -1 -414 -4 -428 -8z"/>
<path d="M5607 2863 c-4 -3 -7 -15 -7 -25 0 -21 -23 -20 312 -20 141 0 261 3
267 6 5 4 9 15 8 26 -1 19 -9 20 -287 20 -158 0 -290 -3 -293 -7z"/>
<path d="M3071 2788 c-35 -4 -66 -9 -69 -12 -2 -3 -13 -1 -24 5 -17 9 -18 7
-15 -18 l4 -28 196 -2 c203 -1 235 4 222 39 -5 13 -24 16 -103 17 -53 1 -108
3 -122 4 -14 2 -54 -1 -89 -5z"/>
<path d="M2299 2780 c0 -3 -2 -14 -4 -26 -4 -20 -2 -21 241 -22 136 0 257 3
270 8 13 6 24 18 24 28 0 18 -13 19 -265 18 -146 -1 -265 -3 -266 -6z"/>
<path d="M3663 2770 c-6 -23 0 -34 22 -37 26 -4 121 -4 635 -1 l424 3 0 25 0
25 -434 0 c-449 0 -494 -1 -484 -16 3 -5 -6 -5 -19 0 -14 6 -28 7 -31 4 -3 -4
-6 -2 -6 3 0 5 -23 10 -51 10 -38 0 -53 -4 -56 -16z"/>
<path d="M4904 2781 c-2 -2 -4 -14 -4 -27 0 -22 0 -22 178 -22 97 0 185 2 195
5 10 2 17 14 17 27 l0 22 -191 -1 c-105 0 -193 -2 -195 -4z"/>
<path d="M5565 2772 c-15 -39 -16 -39 320 -40 298 0 326 1 334 17 5 9 7 22 3
27 -4 6 -128 10 -329 9 -260 0 -324 -3 -328 -13z"/>
<path d="M3040 2699 c-19 -5 -45 -6 -57 -4 -18 4 -23 1 -23 -14 0 -11 8 -24
18 -28 9 -5 112 -8 227 -7 116 1 227 -2 247 -7 25 -7 45 -6 57 1 14 7 22 7 26
0 4 -7 11 -7 18 -2 7 5 237 9 545 8 293 0 542 2 553 6 10 4 19 17 19 28 0 20
-4 20 -540 20 -297 0 -540 -4 -540 -8 0 -9 -51 -7 -125 4 -68 10 -388 13 -425
3z"/>
<path d="M2335 2679 c-4 -11 -4 -23 -1 -26 9 -9 429 -10 449 -1 9 5 17 18 17
28 0 19 -8 20 -229 20 -224 0 -230 -1 -236 -21z"/>
<path d="M4947 2693 c-4 -3 -7 -16 -7 -27 0 -20 4 -21 164 -20 90 1 168 4 175
8 6 4 11 16 11 27 0 18 -8 19 -168 19 -93 0 -172 -3 -175 -7z"/>
<path d="M5527 2694 c-4 -4 -7 -16 -7 -26 0 -21 -38 -19 390 -21 184 -1 341
-6 348 -11 9 -5 18 -2 27 10 18 24 19 40 3 44 -27 6 -755 10 -761 4z"/>
<path d="M2338 2608 c-7 -19 2 -38 18 -38 8 0 14 6 14 13 0 7 5 5 10 -5 9 -14
34 -16 217 -16 210 0 233 3 233 37 0 14 -21 16 -202 14 -112 -2 -207 -3 -213
-3 -5 -1 -24 1 -41 5 -21 4 -33 2 -36 -7z"/>
<path d="M2965 2607 c-7 -4 -12 -15 -11 -25 3 -16 51 -17 837 -19 459 -1 844
0 857 2 24 6 32 44 10 46 -64 6 -1683 2 -1693 -4z"/>
<path d="M5005 2610 c-11 -4 -31 -6 -44 -3 -20 5 -23 3 -18 -11 4 -10 7 -22 7
-26 0 -9 292 -12 323 -4 9 3 17 15 17 28 0 22 -2 22 -132 23 -73 1 -142 -3
-153 -7z"/>
<path d="M5538 2609 c-5 -3 -20 -4 -34 -1 -24 4 -32 -10 -16 -34 5 -9 115 -12
407 -10 l400 1 0 25 0 24 -373 1 c-206 0 -378 -3 -384 -6z"/>
<path d="M5035 2528 c-27 -5 -60 -6 -72 -3 -16 4 -23 1 -23 -9 0 -37 23 -42
176 -40 82 1 155 2 162 3 6 0 12 12 12 26 0 23 -3 25 -52 26 -29 0 -75 2 -103
3 -27 0 -72 -2 -100 -6z"/>
<path d="M1583 2523 c-13 -2 -23 -7 -24 -11 0 -4 -2 -15 -4 -24 -3 -14 4 -18
30 -18 50 0 85 16 85 40 0 16 -6 20 -32 19 -18 -1 -43 -4 -55 -6z"/>
<path d="M2417 2523 c-4 -3 -7 -16 -7 -27 0 -21 4 -21 203 -21 111 0 208 4
215 8 6 5 12 17 12 28 0 18 -9 19 -208 19 -115 0 -212 -3 -215 -7z"/>
<path d="M2959 2520 c-6 -49 -73 -45 836 -46 462 0 848 4 858 8 9 5 17 18 17
28 0 20 -12 20 -855 20 -562 0 -855 -3 -856 -10z"/>
<path d="M5607 2523 c-4 -3 -7 -16 -7 -27 0 -21 2 -22 243 -21 133 0 248 4
255 8 6 5 12 17 12 28 0 18 -9 19 -248 19 -137 0 -252 -3 -255 -7z"/>
<path d="M2470 2447 c-84 -8 -134 -14 -138 -16 -1 -1 2 -10 8 -21 10 -19 21
-20 243 -20 128 0 238 4 245 9 8 5 12 17 10 27 -3 15 -16 18 -103 21 -55 1
-120 4 -145 6 -25 1 -79 -1 -120 -6z"/>
<path d="M1605 2442 c-41 -4 -57 -16 -48 -39 8 -21 100 -17 112 5 18 33 4 40
-64 34z"/>
<path d="M2978 2440 c-14 -4 -23 -13 -23 -25 0 -21 12 -22 204 -24 81 -1 58
-8 -49 -15 -97 -6 -153 -12 -227 -26 -24 -4 -43 -4 -43 1 0 12 -499 6 -504 -7
-12 -32 11 -36 252 -39 133 -2 245 -5 249 -8 4 -2 26 -2 48 0 22 2 426 4 898
6 750 2 859 4 867 17 23 37 14 40 -122 41 -127 0 -219 4 -408 13 -47 3 -114 5
-149 5 -35 1 -62 3 -59 6 3 4 168 6 367 6 198 0 368 2 376 5 18 7 20 44 3 45
-66 4 -1662 3 -1680 -1z m915 -57 c-7 -2 -19 -2 -25 0 -7 3 -2 5 12 5 14 0 19
-2 13 -5z"/>
<path d="M5013 2442 c-27 -3 -33 -7 -33 -28 l0 -24 159 0 c127 0 161 3 171 15
27 32 7 38 -131 39 -74 1 -149 0 -166 -2z"/>
<path d="M5605 2432 c-16 -42 -16 -42 235 -42 132 0 247 3 255 6 18 7 20 44 3
45 -7 0 -120 1 -250 2 -190 2 -239 -1 -243 -11z"/>
<path d="M1533 2352 c-6 -4 -13 -16 -15 -27 -3 -17 4 -19 67 -21 98 -3 165 5
165 21 0 7 -10 16 -22 20 -32 10 -181 16 -195 7z"/>
<path d="M4980 2329 l0 -27 158 2 c86 1 163 5 170 9 6 5 12 16 12 26 0 17 -12
19 -170 18 l-170 -1 0 -27z"/>
<path d="M5605 2352 c-3 -3 -5 -15 -5 -27 0 -21 2 -21 243 -20 133 0 248 4
255 8 6 5 12 16 12 26 0 16 -18 17 -250 17 -138 0 -252 -2 -255 -4z"/>
<path d="M1613 2272 l-133 -3 0 -24 c0 -28 -11 -26 154 -27 101 0 120 6 114
38 -3 18 -13 19 -135 16z"/>
<path d="M4617 2274 c-2 -2 -494 -4 -1094 -4 -599 0 -1093 -3 -1097 -7 -4 -4
-27 -6 -51 -4 -42 2 -45 1 -45 -23 0 -29 21 -35 90 -25 25 4 532 7 1128 7
1109 1 1112 1 1112 37 0 12 -34 27 -43 19z"/>
<path d="M5016 2270 c-21 -4 -48 -5 -59 -2 -16 4 -18 1 -12 -19 4 -13 9 -25
10 -27 1 -2 77 -3 169 -3 168 -1 196 4 196 37 0 8 -10 14 -22 15 -109 5 -250
5 -282 -1z"/>
<path d="M5675 2270 c-66 -5 -70 -6 -70 -29 0 -22 3 -24 56 -24 72 1 99 10 99
33 0 25 -4 26 -85 20z"/>
<path d="M5870 2268 c-19 -4 -42 -5 -52 -2 -22 7 -30 -9 -15 -30 11 -15 31
-17 144 -17 146 1 163 5 163 32 0 14 -8 19 -27 20 -107 5 -183 4 -213 -3z"/>
<path d="M4088 2204 c-2 -1 -30 -5 -63 -9 -33 -3 -66 -10 -74 -15 -8 -4 -25
-4 -38 1 -25 9 -29 0 -13 -30 9 -17 32 -18 367 -18 197 0 366 4 376 9 9 5 17
18 17 28 0 18 -8 20 -87 21 -49 1 -106 3 -128 5 -50 4 -354 12 -357 8z"/>
<path d="M1444 2181 c-2 -2 -4 -14 -4 -26 0 -20 4 -21 143 -23 184 -2 207 2
207 32 l0 24 -171 -2 c-94 0 -173 -3 -175 -5z"/>
<path d="M2030 2172 c0 -9 -7 -11 -19 -7 -12 3 -21 0 -24 -9 -5 -11 3 -17 26
-20 42 -6 1757 -6 1780 1 10 2 17 14 17 27 l0 22 -890 0 c-731 -1 -890 -3
-890 -14z"/>
<path d="M4950 2182 c-5 -2 -10 -14 -10 -26 0 -22 1 -22 167 -23 176 -1 213 5
213 35 0 18 -10 19 -180 18 -99 -1 -184 -2 -190 -4z"/>
<path d="M5605 2181 c-3 -2 -5 -14 -5 -27 0 -21 4 -22 65 -22 69 0 102 15 92
41 -5 13 -20 16 -77 14 -39 -1 -73 -3 -75 -6z"/>
<path d="M5798 2173 c-6 -7 -8 -19 -5 -27 4 -11 35 -14 144 -14 143 0 176 8
171 36 -3 15 -21 17 -151 17 -106 0 -152 -4 -159 -12z"/>
<path d="M1407 2093 c-4 -3 -7 -15 -7 -25 0 -21 -10 -20 232 -20 98 0 182 3
188 7 5 3 10 15 10 26 0 18 -9 19 -208 19 -115 0 -212 -3 -215 -7z"/>
<path d="M2064 2085 c-15 -39 -21 -38 705 -38 673 1 703 1 716 19 7 10 11 22
9 26 -3 5 -325 8 -715 8 -614 0 -710 -2 -715 -15z"/>
<path d="M3584 2085 c-14 -35 1 -40 104 -39 109 2 122 5 122 35 0 18 -8 19
-110 19 -89 0 -112 -3 -116 -15z"/>
<path d="M3930 2072 l0 -29 90 4 c55 2 90 -1 90 -7 0 -6 -18 -11 -40 -11 -22
-1 -43 -2 -47 -3 -41 -10 -101 -19 -115 -17 -21 3 -22 -3 -8 -29 10 -18 28
-19 363 -19 193 0 364 3 380 6 20 3 27 10 27 27 0 19 -5 22 -47 22 -27 1 -109
4 -183 9 -74 4 -177 8 -227 9 -51 1 -93 4 -93 7 0 4 120 6 266 6 220 0 267 2
275 14 24 39 22 39 -361 39 l-370 0 0 -28z"/>
<path d="M4717 2093 c-4 -3 -7 -14 -7 -24 0 -20 27 -33 34 -16 2 7 5 8 5 2 1
-6 99 -10 277 -9 222 1 278 4 285 15 24 38 18 39 -275 39 -263 0 -285 -1 -289
-17 -4 -17 -5 -17 -6 0 -1 17 -12 22 -24 10z"/>
<path d="M5607 2093 c-4 -3 -7 -15 -7 -25 0 -21 -20 -19 276 -20 116 -1 216 2
223 6 6 4 11 16 11 27 0 18 -9 19 -248 19 -137 0 -252 -3 -255 -7z"/>
<path d="M1365 2002 c-15 -40 -14 -40 238 -40 246 0 267 3 267 38 0 16 -17 18
-250 16 -198 -1 -251 -4 -255 -14z"/>
<path d="M2065 2002 c-15 -40 -21 -40 397 -40 221 0 412 4 425 9 13 5 23 17
23 27 0 17 -21 18 -420 17 -340 0 -421 -3 -425 -13z"/>
<path d="M2964 2008 c-2 -3 -12 -4 -23 -1 -14 4 -18 -1 -17 -19 1 -22 3 -23
111 -25 139 -2 155 1 155 30 0 23 -1 24 -111 23 -61 -1 -113 -4 -115 -8z"/>
<path d="M3273 2001 c-26 -26 -8 -36 68 -38 99 -4 119 2 119 31 0 24 -2 24
-87 22 -58 -1 -91 -5 -100 -15z"/>
<path d="M3545 2002 c-14 -37 -7 -40 113 -40 138 -1 152 2 152 32 0 22 -2 22
-130 22 -98 -1 -131 -4 -135 -14z"/>
<path d="M4749 1997 c-6 -9 -7 -21 -5 -26 6 -9 498 -14 529 -5 9 3 17 15 17
28 l0 22 -266 -1 c-244 0 -267 -1 -275 -18z"/>
<path d="M5617 2012 c-10 -2 -17 -13 -17 -27 l0 -23 228 0 c266 -1 284 1 280
31 -3 22 -5 22 -238 22 -130 0 -243 -1 -253 -3z"/>
<path d="M4897 1944 c-5 -4 -124 -17 -154 -17 -34 -1 -47 -15 -33 -38 7 -11
61 -13 277 -14 311 0 320 0 329 27 3 11 4 21 2 23 -5 5 -415 24 -421 19z"/>
<path d="M1324 1915 c-15 -39 -5 -40 262 -39 143 1 268 2 279 3 14 1 20 8 20
26 l0 25 -278 0 c-238 0 -278 -2 -283 -15z"/>
<path d="M2067 1923 c-16 -15 -6 -43 16 -44 102 -5 487 -3 505 3 13 4 22 16
22 28 0 19 -7 20 -268 20 -148 0 -272 -3 -275 -7z"/>
<path d="M2685 1909 c-4 -11 -4 -23 -1 -26 9 -9 160 -10 179 -1 9 5 17 18 17
28 0 18 -7 20 -94 20 -87 0 -95 -2 -101 -21z"/>
<path d="M2959 1920 c-6 -46 -9 -44 94 -45 112 0 137 6 137 35 0 19 -6 20
-115 20 -69 0 -115 -4 -116 -10z"/>
<path d="M3270 1910 c-15 -28 5 -34 113 -34 74 1 90 4 101 20 8 10 12 22 10
26 -3 5 -52 8 -109 8 -94 0 -105 -2 -115 -20z"/>
<path d="M3540 1918 c0 -7 4 -19 9 -27 8 -12 12 -12 24 -2 12 9 16 9 19 -1 5
-14 172 -19 201 -6 9 5 17 18 17 28 0 18 -7 20 -89 20 -62 0 -91 -4 -95 -12
-5 -10 -7 -10 -12 0 -3 6 -21 12 -40 12 -21 0 -34 -5 -34 -12z"/>
<path d="M3897 1923 c-4 -3 -7 -16 -7 -27 0 -21 1 -21 378 -21 207 1 383 4
390 9 6 4 12 16 12 27 0 18 -11 19 -383 19 -211 0 -387 -3 -390 -7z"/>
<path d="M5607 1923 c-16 -15 -6 -43 16 -44 102 -6 456 -3 470 4 9 4 17 17 17
27 0 19 -8 20 -248 20 -137 0 -252 -3 -255 -7z"/>
<path d="M1330 1836 c-6 -6 -10 -18 -10 -27 0 -16 22 -17 272 -17 276 0 308 4
308 38 0 13 -36 15 -280 15 -164 0 -285 -4 -290 -9z"/>
<path d="M2065 1832 c-14 -38 -7 -40 104 -41 111 0 139 9 129 41 -7 19 -226
18 -233 0z"/>
<path d="M2419 1836 c-5 -6 -9 -18 -9 -27 0 -14 13 -16 88 -17 94 -1 116 5
110 34 -3 16 -14 18 -91 19 -48 0 -92 -4 -98 -9z"/>
<path d="M2691 1835 c-5 -5 -8 -17 -8 -26 0 -14 14 -17 86 -17 93 -1 115 5
109 34 -3 16 -14 18 -91 19 -49 0 -92 -4 -96 -10z"/>
<path d="M2969 1839 c-5 -3 -11 -15 -14 -27 -4 -20 0 -21 98 -21 123 0 137 4
137 32 0 22 -3 22 -106 22 -58 0 -110 -3 -115 -6z"/>
<path d="M3287 1842 c-9 -2 -17 -7 -18 -10 0 -4 -2 -14 -4 -23 -2 -15 9 -17
79 -17 100 -1 116 3 116 32 0 21 -4 22 -78 22 -43 -1 -85 -2 -95 -4z"/>
<path d="M3557 1842 c-10 -2 -17 -13 -17 -27 0 -22 2 -23 118 -23 137 -1 152
2 152 31 0 22 -3 22 -118 22 -65 0 -126 -1 -135 -3z"/>
<path d="M3916 1843 c-1 -1 -15 -3 -31 -6 -24 -3 -30 -9 -30 -28 0 -18 5 -23
20 -21 11 1 189 3 396 3 207 0 381 4 388 9 7 4 11 16 9 26 -3 17 -24 18 -376
18 -206 1 -374 0 -376 -1z"/>
<path d="M4728 1841 c-18 -6 -27 -22 -21 -37 3 -9 72 -12 296 -13 161 0 300 2
310 5 9 3 17 15 17 27 l0 22 -295 0 c-162 0 -301 -2 -307 -4z"/>
<path d="M5617 1842 c-10 -2 -17 -13 -17 -27 l0 -23 243 0 c134 0 249 3 256 7
7 5 11 17 9 27 -3 18 -16 19 -239 19 -129 0 -243 -1 -252 -3z"/>
<path d="M1326 1744 c-15 -39 -13 -39 237 -39 133 0 248 4 255 8 6 5 12 17 12
28 0 18 -9 19 -249 19 -218 0 -250 -2 -255 -16z"/>
<path d="M2064 1745 c-14 -36 1 -42 111 -40 107 2 124 7 125 43 0 20 -229 17
-236 -3z"/>
<path d="M2417 1753 c-16 -15 -6 -43 16 -44 137 -9 177 -2 177 31 0 18 -7 20
-93 20 -52 0 -97 -3 -100 -7z"/>
<path d="M2686 1744 c-14 -36 -7 -39 77 -38 120 2 117 1 117 29 0 25 0 25 -94
25 -76 0 -95 -3 -100 -16z"/>
<path d="M2966 1751 c-4 -6 -9 -19 -11 -28 -3 -16 9 -18 114 -21 64 -2 134 -3
156 -3 22 1 499 2 1060 4 561 1 1026 6 1033 10 6 5 12 17 12 28 0 19 -13 19
-1040 17 -866 -3 -1042 -5 -1049 -17 -7 -11 -9 -11 -13 0 -6 18 -252 27 -262
10z"/>
<path d="M5607 1753 c-4 -3 -7 -16 -7 -27 0 -21 3 -21 243 -21 133 0 248 4
255 8 6 5 12 17 12 28 0 18 -9 19 -248 19 -137 0 -252 -3 -255 -7z"/>
<path d="M5680 1677 c-36 -5 -77 -9 -92 -9 -31 1 -32 -1 -18 -28 10 -18 26
-19 259 -20 137 0 256 3 265 6 16 6 23 43 9 45 -153 12 -354 15 -423 6z"/>
<path d="M1360 1670 c-26 -4 -36 -10 -38 -26 -3 -22 -2 -22 240 -23 134 0 249
3 256 8 8 5 12 16 10 26 -3 16 -21 18 -218 19 -118 1 -231 -1 -250 -4z"/>
<path d="M2185 1670 c-113 -5 -120 -6 -123 -27 -3 -21 0 -21 125 -22 133 -1
150 3 150 31 0 22 -13 24 -152 18z"/>
<path d="M2429 1668 c-10 -4 -19 -17 -19 -28 0 -18 6 -20 84 -20 46 0 91 3
100 6 16 6 23 44 9 44 -67 5 -159 3 -174 -2z"/>
<path d="M2720 1670 c-27 -4 -36 -10 -38 -27 l-3 -23 823 0 c453 0 1042 0
1310 0 268 0 494 3 502 6 19 7 21 44 4 44 -189 4 -2574 3 -2598 0z"/>
<path d="M1326 1573 c-13 -32 -6 -38 44 -40 64 -3 100 10 100 36 0 18 -7 20
-69 20 -53 0 -71 -4 -75 -16z"/>
<path d="M1523 1563 c1 -13 4 -24 7 -25 16 -4 249 -6 273 -2 21 4 27 11 27 31
l0 25 -155 -3 c-153 -4 -154 -4 -152 -26z"/>
<path d="M2073 1583 c-7 -3 -13 -15 -13 -27 l0 -22 1643 1 c903 0 1648 4 1655
8 6 5 12 16 12 27 0 17 -53 18 -1642 18 -904 -1 -1649 -3 -1655 -5z"/>
<path d="M5526 1573 c-16 -39 -16 -39 277 -39 155 1 288 5 295 9 6 5 12 16 12
26 0 17 -17 18 -289 19 -247 0 -290 -2 -295 -15z"/>
<path d="M1395 1500 c-63 -5 -70 -7 -73 -27 -3 -20 1 -23 30 -24 87 -3 124 11
116 42 -2 11 -19 13 -73 9z"/>
<path d="M2079 1498 c-21 -8 -27 -48 -6 -48 160 -5 4002 0 4016 5 12 3 21 15
21 26 0 18 -11 19 -362 19 -200 0 -1102 1 -2006 3 -904 1 -1652 -1 -1663 -5z"/>
<path d="M1518 1483 c-3 -10 -3 -22 -1 -28 3 -10 272 -11 299 -1 8 3 14 15 14
26 0 19 -6 20 -154 20 -138 0 -154 -2 -158 -17z"/>
<path d="M1325 1402 c-13 -35 -6 -42 48 -41 87 2 107 8 107 33 0 21 -4 23 -75
22 -53 -1 -76 -5 -80 -14z"/>
<path d="M1520 1400 c-17 -32 3 -38 130 -38 159 -1 180 3 180 32 0 22 -2 22
-151 22 -127 -1 -152 -3 -159 -16z"/>
<path d="M2064 1397 c-3 -10 -3 -22 1 -25 11 -11 4007 -11 4028 0 10 5 17 17
15 26 -3 16 -138 17 -2021 17 -1951 0 -2017 0 -2023 -18z"/>
<path d="M1325 1309 c-4 -11 -4 -23 -1 -26 8 -9 481 -7 495 1 6 4 11 16 11 27
0 18 -9 19 -249 19 -244 0 -250 0 -256 -21z"/>
<path d="M2064 1315 c-15 -39 -12 -39 440 -38 240 0 440 4 443 7 4 4 8 15 10
26 3 20 -5 20 -442 20 -382 0 -446 -2 -451 -15z"/>
<path d="M3268 1324 c-3 -3 -4 -14 -1 -25 6 -21 11 -22 133 -20 48 1 80 -2 75
-7 -13 -11 -124 -36 -147 -33 -9 1 -19 -3 -23 -9 -3 -5 -1 -10 5 -10 6 0 9 -4
5 -9 -8 -13 21 -20 80 -20 106 1 111 -3 30 -22 -44 -10 -88 -16 -97 -13 -26 8
-24 -34 1 -44 26 -9 2754 -8 2769 2 7 4 12 16 12 27 0 18 -9 19 -192 20 -215
1 -504 7 -618 13 -41 3 -115 5 -164 5 -49 1 -87 4 -83 7 3 4 230 6 504 6 274
-1 511 2 526 4 22 5 27 11 25 27 -3 22 -7 22 -183 23 -332 2 -854 19 -863 28
-1 2 229 3 511 3 283 0 520 3 526 7 6 4 11 16 11 27 0 19 -19 19 -1418 19
-781 0 -1421 -3 -1424 -6z m1749 -50 c-3 -3 -12 -4 -19 -1 -8 3 -5 6 6 6 11 1
17 -2 13 -5z m0 -80 c-3 -3 -12 -4 -19 -1 -8 3 -5 6 6 6 11 1 17 -2 13 -5z"/>
<path d="M1325 1232 c-15 -39 -13 -39 257 -38 240 1 261 2 264 18 1 10 -3 21
-9 25 -7 4 -123 8 -259 8 -198 0 -249 -3 -253 -13z"/>
<path d="M2036 1243 c-10 -10 -7 -53 4 -53 6 0 10 6 10 13 0 8 2 9 8 1 5 -8
121 -12 397 -12 215 0 398 2 408 4 9 3 17 15 17 27 l0 23 -399 -1 c-337 0
-401 -3 -417 -15 -10 -8 -15 -10 -11 -3 8 13 -6 26 -17 16z"/>
<path d="M1050 1133 c0 -26 0 -26 20 -8 16 14 17 20 8 27 -22 13 -28 9 -28
-19z"/>
<path d="M1326 1148 c-14 -43 -16 -43 259 -42 144 0 267 4 273 8 7 4 12 16 12
27 0 18 -9 19 -270 19 -208 0 -272 -3 -274 -12z"/>
<path d="M2007 1148 c-18 -6 -27 -16 -25 -26 3 -15 46 -16 436 -16 453 1 451
1 452 42 0 16 -819 16 -863 0z"/>
<path d="M1022 1072 c-7 -2 -12 -14 -12 -28 0 -19 5 -23 26 -22 28 3 48 21 42
39 -4 13 -34 19 -56 11z"/>
<path d="M1490 1068 c-12 -4 -17 -13 -13 -26 5 -19 18 -20 666 -20 364 -1 670
1 680 4 9 3 17 15 17 27 l0 22 -666 0 c-366 0 -674 -3 -684 -7z"/>
<path d="M3355 1067 c-7 -4 -12 -15 -11 -25 3 -16 76 -17 1362 -19 747 -1
1369 0 1382 2 20 5 33 44 15 46 -45 5 -2738 2 -2748 -4z"/>
<path d="M1207 1057 c-9 -27 6 -47 34 -47 48 0 47 30 -3 49 -20 7 -28 7 -31
-2z"/>
<path d="M1017 983 c-4 -3 -7 -15 -7 -25 0 -28 34 -19 38 10 3 21 -16 31 -31
15z"/>
<path d="M1249 980 c-6 -44 -5 -45 41 -43 46 3 62 12 66 38 2 12 -9 15 -52 15
-30 0 -55 -4 -55 -10z"/>
<path d="M1480 962 l0 -27 668 0 c367 0 673 4 680 8 6 5 12 17 12 28 0 19 -14
19 -680 19 l-680 0 0 -28z"/>
<path d="M3346 975 c-15 -41 -55 -40 1372 -40 752 0 1373 4 1380 8 6 5 12 17
12 28 0 19 -21 19 -1379 19 -1216 0 -1380 -2 -1385 -15z"/>
<path d="M6387 983 c-4 -3 -7 -15 -7 -25 0 -28 32 -19 36 10 4 21 -14 31 -29
15z"/>
<path d="M1026 898 c-9 -5 -16 -18 -16 -29 0 -18 6 -20 57 -17 43 2 59 7 61
19 3 19 -77 41 -102 27z"/>
<path d="M1260 900 c-47 -8 -59 -16 -55 -38 1 -11 10 -16 26 -15 13 1 42 2 65
4 22 1 44 8 50 14 12 14 16 35 7 36 -5 0 -19 2 -33 3 -14 2 -41 0 -60 -4z"/>
<path d="M1528 902 c-43 -3 -48 -5 -48 -27 l0 -25 318 1 c174 0 323 4 331 8 7
5 11 17 9 26 -3 17 -22 18 -283 19 -154 1 -301 0 -327 -2z"/>
<path d="M2259 902 c-30 -3 -38 -8 -42 -28 l-4 -24 301 0 c165 0 307 4 314 9
8 5 12 16 10 26 -3 16 -23 18 -273 19 -148 0 -286 0 -306 -2z"/>
<path d="M3390 900 c-38 -4 -45 -9 -46 -27 l-1 -23 1371 0 c754 1 1377 4 1384
9 8 5 12 16 10 26 -3 17 -71 18 -1338 19 -734 0 -1355 -1 -1380 -4z"/>
<path d="M6450 902 c-45 -7 -49 -52 -5 -52 36 0 55 10 55 30 0 21 -15 27 -50
22z"/>
<path d="M6657 893 c-4 -3 -7 -15 -7 -26 0 -13 5 -17 16 -13 9 3 18 6 20 6 2
0 4 9 4 20 0 19 -20 27 -33 13z"/>
<path d="M6730 875 c0 -27 9 -32 28 -13 18 18 14 38 -8 38 -15 0 -20 -7 -20
-25z"/>
<path d="M1050 793 c0 -26 -7 -25 130 -28 122 -3 151 4 143 35 -5 20 -11 21
-139 18 -132 -2 -134 -3 -134 -25z"/>
<path d="M1485 812 c-3 -3 -5 -15 -5 -26 0 -21 1 -21 313 -20 171 0 320 2 330
2 11 1 17 10 17 26 l0 23 -325 0 c-178 0 -327 -2 -330 -5z"/>
<path d="M2221 807 c-5 -5 -7 -16 -4 -26 4 -16 28 -17 301 -15 163 1 303 2
310 3 6 0 12 12 12 25 l0 24 -305 -1 c-171 0 -308 -4 -314 -10z"/>
<path d="M3352 806 c-5 -6 -8 -18 -8 -26 1 -13 160 -15 1366 -16 754 0 1373 3
1383 8 9 5 17 17 17 27 0 18 -46 19 -1375 18 -989 0 -1377 -3 -1383 -11z"/>
<path d="M6460 806 c0 -24 28 -46 50 -38 19 7 20 9 20 37 0 12 -4 14 -17 6
-11 -6 -24 -6 -35 0 -13 7 -18 6 -18 -5z"/>
<path d="M6655 812 c-3 -3 -5 -15 -5 -27 0 -19 5 -22 48 -21 55 2 72 10 72 37
0 16 -7 19 -55 18 -30 -1 -57 -4 -60 -7z"/>
<path d="M1234 732 c-57 -3 -62 -5 -67 -27 -5 -28 -6 -27 78 -25 63 2 87 12
79 35 -7 18 -19 20 -90 17z"/>
<path d="M2506 732 c-171 -1 -314 -6 -320 -12 -7 -5 -17 -5 -26 0 -9 6 -160
10 -346 10 -323 0 -332 -1 -337 -20 -3 -11 -1 -23 4 -26 13 -7 1336 -7 1349 1
14 9 13 42 -2 46 -7 2 -152 3 -322 1z"/>
<path d="M6580 728 c-25 -3 -52 -4 -62 -2 -22 6 -30 -9 -15 -30 10 -14 30 -17
110 -17 107 0 117 3 117 32 0 14 -7 19 -27 20 -16 0 -39 1 -53 2 -14 1 -45 -1
-70 -5z"/>
<path d="M3349 728 c-6 -22 -5 -39 3 -44 5 -3 640 -6 1411 -6 1332 0 1402 1
1414 18 7 10 13 21 13 26 0 7 -2839 12 -2841 6z"/>
<path d="M1170 626 c-4 -12 -6 -24 -4 -28 5 -7 190 -9 217 -1 10 2 17 14 17
27 0 21 -3 22 -111 23 -104 0 -111 -1 -119 -21z"/>
<path d="M1485 641 c-3 -2 -5 -14 -5 -26 l0 -22 668 2 c367 1 673 2 680 3 6 1
12 12 12 25 l0 23 -675 0 c-372 0 -678 -2 -680 -5z"/>
<path d="M3450 640 c-18 -4 -25 -13 -25 -30 0 -17 5 -24 15 -21 8 2 607 4
1330 4 723 0 1326 3 1340 7 14 4 26 15 28 27 3 20 1 20 -1330 19 -733 0 -1344
-3 -1358 -6z"/>
<path d="M6192 626 c3 -29 16 -37 47 -29 13 3 21 13 21 25 0 15 -5 19 -19 15
-10 -2 -26 0 -35 5 -13 7 -15 4 -14 -16z"/>
<path d="M6535 632 c-14 -37 -6 -41 73 -40 86 1 112 10 112 38 0 17 -8 19 -90
17 -64 -1 -91 -6 -95 -15z"/>
<path d="M1200 539 c0 -27 13 -31 100 -31 87 0 100 4 100 33 0 18 -7 19 -100
18 -89 -1 -100 -4 -100 -20z"/>
<path d="M1480 535 c0 -19 5 -25 23 -26 136 -4 1318 0 1326 5 6 4 11 16 11 27
0 19 -14 19 -680 19 l-680 0 0 -25z"/>
<path d="M3347 538 c-4 -12 -4 -24 -2 -26 7 -8 2879 -5 2901 2 16 5 20 12 17
26 -5 20 -22 20 -1458 20 l-1453 0 -5 -22z"/>
<path d="M6537 553 c-4 -3 -7 -15 -7 -25 0 -18 22 -23 95 -19 44 2 55 8 55 31
0 18 -6 20 -68 20 -38 0 -72 -3 -75 -7z"/>
<path d="M1365 472 c-2 -2 -22 -4 -45 -4 -22 0 -40 -3 -40 -9 0 -5 5 -9 10 -9
6 0 9 -5 8 -12 -4 -16 26 -21 68 -13 27 5 34 11 34 29 0 20 -21 31 -35 18z"/>
<path d="M1520 455 c-4 -11 -6 -23 -4 -26 4 -8 1281 -10 1307 -3 9 3 17 15 17
27 l0 22 -656 0 c-648 0 -657 0 -664 -20z"/>
<path d="M3313 468 c-2 -5 -6 -16 -8 -27 -3 -18 34 -18 1458 -19 804 0 1470 2
1480 4 9 3 17 15 17 27 l0 22 -1471 0 c-809 0 -1473 -3 -1476 -7z"/>
<path d="M6541 465 c-20 -25 -7 -41 33 -43 58 -2 76 6 76 33 0 22 -4 23 -51
22 -28 -1 -54 -6 -58 -12z"/>
<path d="M1324 375 c-9 -22 0 -38 21 -41 28 -4 55 14 55 36 0 16 -7 20 -35 20
-22 0 -38 -6 -41 -15z"/>
<path d="M1487 383 c-4 -3 -7 -16 -7 -27 0 -21 0 -21 471 -20 445 0 472 1 485
19 7 10 11 22 8 26 -6 10 -947 12 -957 2z"/>
<path d="M2460 360 c0 -16 5 -30 10 -30 6 0 10 14 10 30 0 17 -4 30 -10 30 -5
0 -10 -13 -10 -30z"/>
<path d="M2497 383 c-4 -3 -7 -16 -7 -27 0 -20 4 -21 163 -21 89 0 168 4 175
8 6 5 12 17 12 28 0 18 -8 19 -168 19 -93 0 -172 -3 -175 -7z"/>
<path d="M3270 363 l0 -28 1478 1 c812 1 1485 2 1495 3 11 1 17 9 17 26 l0 25
-1495 0 -1495 0 0 -27z"/>
<path d="M6535 370 c-3 -11 -4 -23 -1 -28 5 -9 294 -7 303 2 4 4 8 15 10 26 3
19 -3 20 -151 20 -146 0 -155 -1 -161 -20z"/>
<path d="M1338 303 c-23 -6 -25 -53 -2 -53 43 0 72 41 38 54 -9 3 -16 5 -17 5
-1 -1 -10 -3 -19 -6z"/>
<path d="M1445 292 c-16 -41 -24 -40 427 -40 355 0 434 3 446 14 36 37 18 38
-431 39 -355 0 -438 -3 -442 -13z"/>
<path d="M2413 300 c-4 -5 -9 -6 -34 -9 -6 0 -9 -11 -7 -23 2 -18 9 -22 28
-21 14 2 113 3 221 4 108 0 202 4 208 9 7 4 11 16 9 26 -3 16 -18 18 -211 18
-115 1 -211 -1 -214 -4z"/>
<path d="M3153 300 c-4 -5 -9 -6 -34 -9 -6 0 -9 -11 -7 -23 2 -18 9 -22 28
-21 14 2 714 3 1555 3 842 1 1538 3 1548 6 9 3 17 15 17 27 l0 22 -1551 0
c-853 0 -1553 -2 -1556 -5z"/>
<path d="M6535 292 c-13 -35 -6 -38 92 -40 56 -1 102 3 109 9 7 6 18 8 24 4 6
-3 10 3 10 14 0 23 5 22 -137 25 -69 1 -94 -2 -98 -12z"/>
<path d="M1570 237 c-7 -7 -88 -20 -129 -21 -38 -1 -49 -16 -28 -38 12 -11 81
-14 393 -13 209 1 385 4 392 9 6 4 12 16 12 27 0 17 -8 19 -77 20 -43 0 -87 2
-98 5 -29 6 -460 16 -465 11z"/>
<path d="M1320 194 c0 -17 5 -24 20 -24 14 0 20 7 20 23 0 16 -6 23 -20 24
-15 1 -20 -4 -20 -23z"/>
<path d="M2283 213 c-12 -2 -24 -11 -27 -19 -8 -20 4 -45 17 -37 6 4 131 7
277 8 146 0 271 4 278 8 6 5 12 17 12 28 0 18 -9 19 -267 18 -148 -1 -278 -4
-290 -6z"/>
<path d="M3060 211 c-18 -5 -25 -14 -24 -31 0 -17 5 -24 15 -21 8 3 811 5
1784 6 974 2 1780 3 1793 4 16 1 22 7 22 26 l0 25 -1782 -1 c-981 -1 -1794 -4
-1808 -8z"/>
<path d="M1435 132 c-33 -2 -63 -9 -67 -15 -23 -36 -17 -37 360 -34 l367 2 3
25 3 25 -303 0 c-167 0 -330 -1 -363 -3z"/>
<path d="M2338 132 l-158 -3 0 -24 0 -25 318 0 c174 0 323 4 330 9 8 5 12 16
10 25 -3 15 -22 17 -173 19 -93 1 -241 1 -327 -1z"/>
<path d="M3003 128 c-15 -25 -10 -46 13 -51 13 -2 25 -2 27 0 2 2 753 4 1668
6 l1664 2 3 23 c3 22 2 22 -115 22 -2656 4 -3256 4 -3260 -2z"/>
<path d="M6499 128 c-13 -47 -12 -48 61 -48 68 0 70 1 70 25 0 24 -2 25 -65
25 -36 0 -65 -1 -66 -2z"/>
<path d="M2267 53 c-1 -1 -36 -3 -77 -4 -41 -1 -90 -6 -107 -10 -18 -4 -33 -3
-33 1 0 14 -789 9 -797 -4 -23 -36 -21 -36 377 -36 301 0 389 3 393 13 4 9 6
9 6 0 1 -10 89 -13 406 -13 l405 0 0 24 0 25 -167 1 c-93 1 -221 3 -286 4 -65
1 -119 0 -120 -1z"/>
<path d="M2953 42 c-29 -4 -51 -30 -32 -37 8 -3 797 -4 1754 -3 l1740 3 3 21
3 21 -1723 0 c-948 -1 -1733 -3 -1745 -5z"/>
<path d="M6503 38 c-19 -32 -11 -38 48 -38 56 0 59 1 59 25 0 23 -3 25 -49 25
-29 0 -53 -5 -58 -12z"/>
</g>
</svg>
